# xmcd CD Database Entry
#
# Track frame offsets:
# 150
# 15986
# 41362
# 61888
# 91982
# 106774
# 122302
# 146893
# 165342
# 182695
# 200057
# 221661
#
# Disc length: 3211 seconds
#
# Revision: 4
# Processed by: cddbd v1.4PL0 Copyright (c) Steve Scherf et al.
# Submitted via: tcd 2.0b
#
DISCID=980c890c
DTITLE=Kishore Kumare - Kabhie to Hasaye...Kabhie to Rulaye Vol 2
DYEAR=1900
DGENRE=
TTITLE0=O Mere Dile Ke Chain/"Mere Jeevan Sathi"/RD Burman/Majrooh Su
TTITLE0=ltanpuri
TTITLE1=Tera Mujse Hai/"Aa Gale Lag Jaa"/RD Burman/Sahir Ludhianvi
TTITLE2=Kitne Bhi Tu Karle Sitam/"Sanam Teri Kasam"/RD Burman/Gulshan
TTITLE2=Bawra
TTITLE3=Dil Kya Kare/"Julie"/Rajesh Roshan/Anand Bakshi
TTITLE4=Rim Jhim Ghire Sawan/"Manzil"/RD Burman/Yogesh
TTITLE5=Koi Hota Jiko Apna/"Mere Apne"/Salil Chowdhury/Gulzar
TTITLE6=Pal Pal Dil Ke Paas/"Blackmail"/Kalyanji AnandJi/Rahendra Kri
TTITLE6=shan
TTITLE7=Meri Bhigi Si/"Anamika"/RD Burman/Majrooh Sultanpuri
TTITLE8=O Hansni/"Zehreela Insaan"/RD Burman/Majrooh Sultanpuri
TTITLE9=Gum Hai Kisi Ke (With Lata Mangeshkar)/"Rampur Ka Laxman"/RD 
TTITLE9=Burman/Majrooh Sultanpuri
TTITLE10=Dilbar <ere (With Anette)/"Satte Pe Satta"/RD Burman/Gulshan 
TTITLE10=Bawra
TTITLE11=Saagar Kinare (With Lata)/"Saagar"/RD Burman/Javed Akhtar
EXTD=
EXTT0=
EXTT1=
EXTT2=
EXTT3=
EXTT4=
EXTT5=
EXTT6=
EXTT7=
EXTT8=
EXTT9=
EXTT10=
EXTT11=
PLAYORDER=
